<svg width="64" height="64" viewBox="0 0 64 64" fill="none" xmlns="http://www.w3.org/2000/svg">
<path d="M23 25L24.4 0L38.9 8.1L23 25Z" fill="url(#paint0_linear)"/>
<path d="M23 25.0001L23.9 9.5001L38.9 8.1001L23 25.0001Z" fill="url(#paint1_linear)"/>
<path d="M23 25L23.9 9.7L24.4 0L5.9 11.6L0 47.1L23 25Z" fill="#00FF6A"/>
<path d="M23 25L23.9 9.5L5.90002 11.6L12.4 35.3L23 25Z" fill="url(#paint2_linear)"/>
<path d="M23 25L24.4 0L5.90002 11.6L12.4 35.3L23 25Z" fill="url(#paint3_linear)"/>
<path d="M23 24.5L21.7 47.4L37.9 60.5L53.9 64L64 41.2L23 24.5Z" fill="url(#paint4_linear)"/>
<path d="M48.9 40.4999L34.7 31.7999L36.5 29.8999L64 41.1999L48.9 40.4999Z" fill="url(#paint5_linear)"/>
<path d="M48.9 40.5L37.9 60.5L53.9 64L64 41.2L48.9 40.5Z" fill="url(#paint6_linear)"/>
<path d="M22.4 32.5L21.7 47.4L37.9 60.5L22.4 32.5Z" fill="url(#paint7_linear)"/>
<path d="M22.9 33.7998L53.9 63.9998L37.9 60.4998L22.9 33.7998Z" fill="url(#paint8_linear)"/>
<path d="M22.9 33.7998L53.9 63.9998L37.9 60.4998L22.9 33.7998Z" fill="url(#paint9_linear)"/>
<path d="M0 47.1001L23 25.0001L5.9 11.6001L0 47.1001Z" fill="url(#paint10_linear)"/>
<path d="M0 47.1001L16.9 30.1001L5.9 11.6001L0 47.1001Z" fill="url(#paint11_linear)"/>
<path d="M64 22.0999L54.5 2.3999L38.9 8.0999L0 47.0999L20.8 62.1999L64 22.0999Z" fill="url(#paint12_linear)"/>
<path d="M22.6 33.7002L21.7 47.4002L29.7 53.9002L32.7 51.1002L22.6 33.7002Z" fill="url(#paint13_linear)"/>
<path d="M0 47.1001L22.5 33.6001L20.8 62.2001L0 47.1001Z" fill="url(#paint14_linear)"/>
<path d="M0 47.1001L22.5 33.6001L20.8 62.2001L0 47.1001Z" fill="url(#paint15_linear)"/>
<path d="M11.9 39.9001L22.5 33.6001L21.6 47.2001L11.9 39.9001Z" fill="url(#paint16_linear)"/>
<path d="M0 47.0999L22.5 33.6999L54.5 2.3999L38.9 8.0999L0 47.0999Z" fill="url(#paint17_linear)"/>
<path d="M0 47.0999L22.4 33.6999L54.5 2.3999L38.9 8.0999L0 47.0999Z" fill="url(#paint18_linear)"/>
<path d="M45.2 11.5999L54.5 2.3999L38.9 8.0999L45.2 11.5999Z" fill="url(#paint19_linear)"/>
<path d="M63.8 21.8001L29.8 53.6001L17.1 30.0001L38.9 8.1001L63.8 21.8001Z" fill="url(#paint20_linear)"/>
<path d="M49.5 35.2002L22.9 24.2002V24.4002L45.9 38.6002L49.5 35.2002Z" fill="url(#paint21_linear)"/>
<path d="M45.2 11.5001L22.5 33.7001L0 47.1001L17.1 30.0001L38.9 8.1001L45.2 11.5001Z" fill="url(#paint22_linear)"/>
<path d="M45.4 11.4001L22.5 33.7001L0 47.1001L17.1 30.0001L38.9 8.1001L45.4 11.4001Z" fill="url(#paint23_linear)"/>
<path d="M45.4 10.9999L54.5 2.3999L64 22.0999L45.4 10.9999Z" fill="url(#paint24_linear)"/>
<path d="M23.1 24.0001L33.5 29.2001L38.9 8.1001L23.1 24.0001Z" fill="url(#paint25_linear)"/>
<path d="M38.9 8.1L24.4 0L23.1 24L38.9 8.1Z" fill="url(#paint26_linear)"/>
<path d="M52 12H12V52H52V12Z" fill="url(#paint27_linear)"/>
<g opacity="0.3">
<path opacity="0.3" d="M52 36.3L23 24.5L21.7 47.4L27.4 52H52V36.3Z" fill="url(#paint28_linear)"/>
<path opacity="0.3" d="M52 52V40.6L48.9 40.5L42.6 52H52Z" fill="url(#paint29_linear)"/>
<path opacity="0.3" d="M12 12V33.7V36L23 25L23.7 12H12Z" fill="url(#paint30_linear)"/>
<path opacity="0.3" d="M12 33.6999V35.4999L23 24.9999L12 16.3999V33.6999Z" fill="url(#paint31_linear)"/>
<path opacity="0.3" d="M23.7 12L23.1 24L35 12H23.7Z" fill="url(#paint32_linear)"/>
<path opacity="0.3" d="M52 33.2V12H35L12 35V52H31.7L52 33.2Z" fill="url(#paint33_linear)"/>
<path opacity="0.3" d="M12 35.1V40.1L22.5 33.7L44.7 12H35L12 35V35.1Z" fill="url(#paint34_linear)"/>
<path opacity="0.3" d="M12 52.0001H21.4L22.5 33.6001L12 39.9001V52.0001Z" fill="url(#paint35_linear)"/>
</g>
<path d="M32 44.4502H17V46.9502H32V44.4502Z" fill="white"/>
<path d="M32.3 16.9502H35.6V29.2002H42.2001V32.0002H32.3V16.9502Z" fill="white"/>
<path d="M16.15 24.6C16.15 20.25 19.4 16.75 24.05 16.75C26.9 16.75 28.6 17.7 30 19.1L27.9 21.5C26.75 20.45 25.55 19.8 24.05 19.8C21.5 19.8 19.65 21.9 19.65 24.5V24.55C19.65 27.15 21.45 29.3 24.05 29.3C25.8 29.3 26.85 28.6 28.05 27.55L30.15 29.7C28.6 31.35 26.85 32.4 23.95 32.4C19.45 32.35 16.15 28.9 16.15 24.6Z" fill="white"/>
<defs>
<linearGradient id="paint0_linear" x1="23.0045" y1="12.513" x2="41.3411" y2="12.513" gradientUnits="userSpaceOnUse">
<stop  offset="0" stop-color="#FF318C"/>
<stop offset="0.149" stop-color="#FB348C"/>
<stop offset="0.2849" stop-color="#F03C8C"/>
<stop offset="0.4157" stop-color="#DE4A8C"/>
<stop offset="0.5434" stop-color="#C45D8B"/>
<stop offset="0.6689" stop-color="#A2778B"/>
<stop offset="0.7926" stop-color="#79958A"/>
<stop offset="0.9128" stop-color="#49B98A"/>
<stop offset="1" stop-color="#21D789"/>
</linearGradient>
<linearGradient id="paint1_linear" x1="20.8201" y1="18.293" x2="46.2931" y2="8.349" gradientUnits="userSpaceOnUse">
<stop offset="0.1069" stop-color="#FF318C"/>
<stop offset="0.2181" stop-color="#FB338C"/>
<stop offset="0.3194" stop-color="#F0388E"/>
<stop offset="0.4168" stop-color="#DE4190"/>
<stop offset="0.5114" stop-color="#C44E93"/>
<stop offset="0.6008" stop-color="#A45E97"/>
<stop offset="0.6375" stop-color="#976A96"/>
<stop offset="0.7051" stop-color="#758992"/>
<stop offset="0.7956" stop-color="#3FBC8C"/>
<stop offset="0.8402" stop-color="#21D789"/>
</linearGradient>
<linearGradient id="paint2_linear" x1="20.7408" y1="7.0486" x2="6.81342" y2="32.0706" gradientUnits="userSpaceOnUse">
<stop offset="0.0294109" stop-color="#00FF6A"/>
<stop offset="0.375" stop-color="#21D789"/>
<stop offset="0.9032" stop-color="#009AE5"/>
</linearGradient>
<linearGradient id="paint3_linear" x1="24.1431" y1="17.1367" x2="14.8802" y2="17.954" gradientUnits="userSpaceOnUse">
<stop offset="0.0294109" stop-color="#A6FF9E"/>
<stop offset="0.6015" stop-color="#21D789" stop-opacity="0"/>
</linearGradient>
<linearGradient id="paint4_linear" x1="34.2964" y1="43.6371" x2="64.0131" y2="47.8622" gradientUnits="userSpaceOnUse">
<stop offset="0.3444" stop-color="#21D789"/>
<stop offset="0.8032" stop-color="#009AE5"/>
<stop offset="0.9931" stop-color="#0855FA"/>
</linearGradient>
<linearGradient id="paint5_linear" x1="35.8946" y1="43.4374" x2="58.8179" y2="30.7715" gradientUnits="userSpaceOnUse">
<stop offset="0.0962983" stop-color="#00FF6A"/>
<stop offset="0.9654" stop-color="#00FF6A" stop-opacity="0"/>
</linearGradient>
<linearGradient id="paint6_linear" x1="31.3557" y1="63.3234" x2="66.4022" y2="43.9592" gradientUnits="userSpaceOnUse">
<stop  offset="0" stop-color="#42FFFA" stop-opacity="0.5"/>
<stop offset="0.9989" stop-color="#00FF6A" stop-opacity="0"/>
</linearGradient>
<linearGradient id="paint7_linear" x1="40.9231" y1="48.4456" x2="28.5726" y2="46.2661" gradientUnits="userSpaceOnUse">
<stop offset="0.0521494" stop-color="#00FF6A"/>
<stop offset="1" stop-color="#009AE5"/>
</linearGradient>
<linearGradient id="paint8_linear" x1="64.3361" y1="51.3322" x2="24.534" y2="47.606" gradientUnits="userSpaceOnUse">
<stop offset="0.1212" stop-color="#21D789" stop-opacity="0"/>
<stop offset="0.7868" stop-color="#00FF6A"/>
</linearGradient>
<linearGradient id="paint9_linear" x1="42.2493" y1="45.7949" x2="33.9588" y2="52.5113" gradientUnits="userSpaceOnUse">
<stop offset="0.0962983" stop-color="#42FFFA"/>
<stop offset="0.9654" stop-color="#42FFFA" stop-opacity="0"/>
</linearGradient>
<linearGradient id="paint10_linear" x1="17.9789" y1="10.6547" x2="-1.1155" y2="52.3152" gradientUnits="userSpaceOnUse">
<stop offset="0.0913979" stop-color="#00FF6A"/>
<stop offset="0.759" stop-color="#009AE5"/>
</linearGradient>
<linearGradient id="paint11_linear" x1="3.364" y1="20.2085" x2="10.2658" y2="45.0911" gradientUnits="userSpaceOnUse">
<stop offset="0.1163" stop-color="#21D789" stop-opacity="0.6"/>
<stop offset="1" stop-color="#009AE5"/>
</linearGradient>
<linearGradient id="paint12_linear" x1="58.7729" y1="6.3221" x2="-5.6103" y2="74.3205" gradientUnits="userSpaceOnUse">
<stop offset="0.0913979" stop-color="#21D789"/>
<stop offset="0.9032" stop-color="#009AE5"/>
</linearGradient>
<linearGradient id="paint13_linear" x1="32.6775" y1="61.1161" x2="20.5203" y2="34.7755" gradientUnits="userSpaceOnUse">
<stop offset="0.00994756" stop-color="#009AE5"/>
<stop offset="0.9654" stop-color="#009AE5" stop-opacity="0"/>
</linearGradient>
<linearGradient id="paint14_linear" x1="1.91165e-05" y1="47.8972" x2="22.526" y2="47.8972" gradientUnits="userSpaceOnUse">
<stop offset="0.0556783" stop-color="#009AE5" stop-opacity="0.4"/>
<stop offset="0.7897" stop-color="#009AE5"/>
</linearGradient>
<linearGradient id="paint15_linear" x1="3.8601" y1="34.1313" x2="19.6615" y2="47.3899" gradientUnits="userSpaceOnUse">
<stop offset="0.1196" stop-color="#42FFFA"/>
<stop offset="0.6743" stop-color="#42FFFA" stop-opacity="0"/>
</linearGradient>
<linearGradient id="paint16_linear" x1="11.9384" y1="40.3986" x2="22.526" y2="40.3986" gradientUnits="userSpaceOnUse">
<stop offset="0.0556783" stop-color="#009AE5" stop-opacity="0.4"/>
<stop offset="1" stop-color="#087CFA"/>
</linearGradient>
<linearGradient id="paint17_linear" x1="10.8516" y1="44.8557" x2="51.159" y2="-4.582" gradientUnits="userSpaceOnUse">
<stop  offset="0" stop-color="#0697DC"/>
<stop offset="0.9032" stop-color="#00FF6A"/>
</linearGradient>
<linearGradient id="paint18_linear" x1="35.3278" y1="30.9561" x2="27.8812" y2="25.2349" gradientUnits="userSpaceOnUse">
<stop offset="0.0962983" stop-color="#6EFFA3"/>
<stop offset="0.6015" stop-color="#21D789" stop-opacity="0"/>
</linearGradient>
<linearGradient id="paint19_linear" x1="52.5183" y1="8.3123" x2="42.1656" y2="3.2268" gradientUnits="userSpaceOnUse">
<stop offset="0.0962983" stop-color="#6EFFA3"/>
<stop offset="0.9654" stop-color="#FCF84A" stop-opacity="0"/>
</linearGradient>
<linearGradient id="paint20_linear" x1="59.7764" y1="50.0351" x2="17.2761" y2="9.7142" gradientUnits="userSpaceOnUse">
<stop offset="0.5747" stop-color="#0CAFA3" stop-opacity="0.1365"/>
<stop offset="1" stop-color="#07C3F2" stop-opacity="0.88"/>
</linearGradient>
<linearGradient id="paint21_linear" x1="16.9031" y1="22.4844" x2="51.3996" y2="38.6265" gradientUnits="userSpaceOnUse">
<stop offset="0.4862" stop-color="#087CFA" stop-opacity="0"/>
<stop offset="1" stop-color="#21D789"/>
</linearGradient>
<linearGradient id="paint22_linear" x1="29.725" y1="35.0357" x2="23.5645" y2="30.0705" gradientUnits="userSpaceOnUse">
<stop offset="0.311" stop-color="#65FFC5" stop-opacity="0.88"/>
<stop offset="0.4437" stop-color="#56F2BE" stop-opacity="0.6801"/>
<stop offset="0.6983" stop-color="#2FD0AD" stop-opacity="0.2969"/>
<stop offset="0.8955" stop-color="#0CB29E" stop-opacity="0"/>
</linearGradient>
<linearGradient id="paint23_linear" x1="26.9702" y1="37.1942" x2="17.8889" y2="20.3031" gradientUnits="userSpaceOnUse">
<stop offset="0.0962983" stop-color="#42FFFA"/>
<stop offset="0.6336" stop-color="#42FFFA" stop-opacity="0"/>
</linearGradient>
<linearGradient id="paint24_linear" x1="68.3528" y1="16.7675" x2="48.8579" y2="7.1911" gradientUnits="userSpaceOnUse">
<stop offset="0.1514" stop-color="#00865B"/>
<stop offset="0.2496" stop-color="#048D64" stop-opacity="0.8794"/>
<stop offset="0.412" stop-color="#0EA07D" stop-opacity="0.6799"/>
<stop offset="0.6187" stop-color="#1FBFA6" stop-opacity="0.426"/>
<stop offset="0.8591" stop-color="#37EADF" stop-opacity="0.1306"/>
<stop offset="0.9654" stop-color="#42FFFA" stop-opacity="0"/>
</linearGradient>
<linearGradient id="paint25_linear" x1="58.5238" y1="3.4361" x2="20.1101" y2="29.5901" gradientUnits="userSpaceOnUse">
<stop offset="0.1446" stop-color="#FF67AA"/>
<stop offset="0.2328" stop-color="#FB69A9" stop-opacity="0.8603"/>
<stop offset="0.3132" stop-color="#F06FA6" stop-opacity="0.7328"/>
<stop offset="0.3907" stop-color="#DE7AA2" stop-opacity="0.6101"/>
<stop offset="0.4663" stop-color="#C48A9B" stop-opacity="0.4903"/>
<stop offset="0.5406" stop-color="#A29E93" stop-opacity="0.3725"/>
<stop offset="0.6139" stop-color="#79B788" stop-opacity="0.2564"/>
<stop offset="0.6864" stop-color="#48D47C" stop-opacity="0.1415"/>
<stop offset="0.7565" stop-color="#10F56E" stop-opacity="0.0303353"/>
<stop offset="0.7757" stop-color="#00FF6A" stop-opacity="0"/>
</linearGradient>
<linearGradient id="paint26_linear" x1="18.7415" y1="11.3875" x2="33.0445" y2="13.1583" gradientUnits="userSpaceOnUse">
<stop offset="0.2258" stop-color="#FF52A0"/>
<stop offset="0.4026" stop-color="#FF4E9E" stop-opacity="0.6404"/>
<stop offset="0.5635" stop-color="#FF4397" stop-opacity="0.3132"/>
<stop offset="0.7175" stop-color="#FF318C" stop-opacity="0"/>
</linearGradient>
<linearGradient id="paint27_linear" x1="11.4969" y1="12.0965" x2="51.2702" y2="50.7069" gradientUnits="userSpaceOnUse">
<stop  offset="0" stop-color="#007859"/>
<stop offset="0.0882966" stop-color="#00533E"/>
<stop offset="0.1921" stop-color="#002F23"/>
<stop offset="0.2894" stop-color="#001510"/>
<stop offset="0.3766" stop-color="#000604"/>
<stop offset="0.4452"/>
<stop offset="0.9138"/>
</linearGradient>
<linearGradient id="paint28_linear" x1="31.5548" y1="39.1328" x2="54.1056" y2="42.339" gradientUnits="userSpaceOnUse">
<stop offset="0.0207811" stop-color="#00A466"/>
<stop offset="0.9931" stop-color="#083737"/>
</linearGradient>
<linearGradient id="paint29_linear" x1="42.6052" y1="46.2351" x2="52" y2="46.2351" gradientUnits="userSpaceOnUse">
<stop offset="0.1545" stop-color="#003127"/>
<stop offset="0.9931" stop-color="#0855FA"/>
</linearGradient>
<linearGradient id="paint30_linear" x1="23.4487" y1="22.9779" x2="16.8948" y2="23.5562" gradientUnits="userSpaceOnUse">
<stop offset="0.0962983" stop-color="#6EFFA3"/>
<stop offset="0.9654" stop-color="#FCF84A"/>
</linearGradient>
<linearGradient id="paint31_linear" x1="19.4166" y1="16.5411" x2="9.8452" y2="37.4241" gradientUnits="userSpaceOnUse">
<stop offset="0.0913979" stop-color="#00FF6A"/>
<stop offset="0.759" stop-color="#009AE5"/>
</linearGradient>
<linearGradient id="paint32_linear" x1="25.6218" y1="10.9372" x2="32.5652" y2="25.2735" gradientUnits="userSpaceOnUse">
<stop offset="0.3369" stop-color="#FF52A0"/>
<stop offset="0.493" stop-color="#FF489A"/>
<stop offset="0.7175" stop-color="#FF318C"/>
</linearGradient>
<linearGradient id="paint33_linear" x1="36.1614" y1="9.7503" x2="28.7042" y2="53.4649" gradientUnits="userSpaceOnUse">
<stop  offset="0" stop-color="#21D789"/>
<stop offset="1" stop-color="#090C1B"/>
</linearGradient>
<linearGradient id="paint34_linear" x1="32.9892" y1="13.3401" x2="21.3855" y2="38.8617" gradientUnits="userSpaceOnUse">
<stop offset="0.0962983" stop-color="#6EFFA3"/>
<stop offset="0.9654" stop-color="#218F59"/>
</linearGradient>
<linearGradient id="paint35_linear" x1="10.3463" y1="37.0135" x2="19.5794" y2="44.7608" gradientUnits="userSpaceOnUse">
<stop offset="0.1545" stop-color="#001A18"/>
<stop offset="0.9931" stop-color="#0855FA"/>
</linearGradient>
</defs>
</svg>
