<svg xmlns="http://www.w3.org/2000/svg" width="64" height="64" fill="none" viewBox="0 0 64 64"><path fill="url(#paint0_linear)" d="M23 25L24.4 0L38.9 8.1L23 25Z"/><path fill="url(#paint1_linear)" d="M23 25.0001L23.9 9.5001L38.9 8.1001L23 25.0001Z"/><path fill="#00FF6A" d="M23 25L23.9 9.7L24.4 0L5.9 11.6L0 47.1L23 25Z"/><path fill="url(#paint2_linear)" d="M23 25L23.9 9.5L5.90002 11.6L12.4 35.3L23 25Z"/><path fill="url(#paint3_linear)" d="M23 25L24.4 0L5.90002 11.6L12.4 35.3L23 25Z"/><path fill="url(#paint4_linear)" d="M23 24.5L21.7 47.4L37.9 60.5L53.9 64L64 41.2L23 24.5Z"/><path fill="url(#paint5_linear)" d="M48.9 40.4999L34.7 31.7999L36.5 29.8999L64 41.1999L48.9 40.4999Z"/><path fill="url(#paint6_linear)" d="M48.9 40.5L37.9 60.5L53.9 64L64 41.2L48.9 40.5Z"/><path fill="url(#paint7_linear)" d="M22.4 32.5L21.7 47.4L37.9 60.5L22.4 32.5Z"/><path fill="url(#paint8_linear)" d="M22.9 33.7998L53.9 63.9998L37.9 60.4998L22.9 33.7998Z"/><path fill="url(#paint9_linear)" d="M22.9 33.7998L53.9 63.9998L37.9 60.4998L22.9 33.7998Z"/><path fill="url(#paint10_linear)" d="M0 47.1001L23 25.0001L5.9 11.6001L0 47.1001Z"/><path fill="url(#paint11_linear)" d="M0 47.1001L16.9 30.1001L5.9 11.6001L0 47.1001Z"/><path fill="url(#paint12_linear)" d="M64 22.0999L54.5 2.3999L38.9 8.0999L0 47.0999L20.8 62.1999L64 22.0999Z"/><path fill="url(#paint13_linear)" d="M22.6 33.7002L21.7 47.4002L29.7 53.9002L32.7 51.1002L22.6 33.7002Z"/><path fill="url(#paint14_linear)" d="M0 47.1001L22.5 33.6001L20.8 62.2001L0 47.1001Z"/><path fill="url(#paint15_linear)" d="M0 47.1001L22.5 33.6001L20.8 62.2001L0 47.1001Z"/><path fill="url(#paint16_linear)" d="M11.9 39.9001L22.5 33.6001L21.6 47.2001L11.9 39.9001Z"/><path fill="url(#paint17_linear)" d="M0 47.0999L22.5 33.6999L54.5 2.3999L38.9 8.0999L0 47.0999Z"/><path fill="url(#paint18_linear)" d="M0 47.0999L22.4 33.6999L54.5 2.3999L38.9 8.0999L0 47.0999Z"/><path fill="url(#paint19_linear)" d="M45.2 11.5999L54.5 2.3999L38.9 8.0999L45.2 11.5999Z"/><path fill="url(#paint20_linear)" d="M63.8 21.8001L29.8 53.6001L17.1 30.0001L38.9 8.1001L63.8 21.8001Z"/><path fill="url(#paint21_linear)" d="M49.5 35.2002L22.9 24.2002V24.4002L45.9 38.6002L49.5 35.2002Z"/><path fill="url(#paint22_linear)" d="M45.2 11.5001L22.5 33.7001L0 47.1001L17.1 30.0001L38.9 8.1001L45.2 11.5001Z"/><path fill="url(#paint23_linear)" d="M45.4 11.4001L22.5 33.7001L0 47.1001L17.1 30.0001L38.9 8.1001L45.4 11.4001Z"/><path fill="url(#paint24_linear)" d="M45.4 10.9999L54.5 2.3999L64 22.0999L45.4 10.9999Z"/><path fill="url(#paint25_linear)" d="M23.1 24.0001L33.5 29.2001L38.9 8.1001L23.1 24.0001Z"/><path fill="url(#paint26_linear)" d="M38.9 8.1L24.4 0L23.1 24L38.9 8.1Z"/><path fill="url(#paint27_linear)" d="M52 12H12V52H52V12Z"/><g opacity=".3"><path fill="url(#paint28_linear)" d="M52 36.3L23 24.5L21.7 47.4L27.4 52H52V36.3Z" opacity=".3"/><path fill="url(#paint29_linear)" d="M52 52V40.6L48.9 40.5L42.6 52H52Z" opacity=".3"/><path fill="url(#paint30_linear)" d="M12 12V33.7V36L23 25L23.7 12H12Z" opacity=".3"/><path fill="url(#paint31_linear)" d="M12 33.6999V35.4999L23 24.9999L12 16.3999V33.6999Z" opacity=".3"/><path fill="url(#paint32_linear)" d="M23.7 12L23.1 24L35 12H23.7Z" opacity=".3"/><path fill="url(#paint33_linear)" d="M52 33.2V12H35L12 35V52H31.7L52 33.2Z" opacity=".3"/><path fill="url(#paint34_linear)" d="M12 35.1V40.1L22.5 33.7L44.7 12H35L12 35V35.1Z" opacity=".3"/><path fill="url(#paint35_linear)" d="M12 52.0001H21.4L22.5 33.6001L12 39.9001V52.0001Z" opacity=".3"/></g><path fill="#fff" d="M32 44.4502H17V46.9502H32V44.4502Z"/><path fill="#fff" d="M32.3 16.9502H35.6V29.2002H42.2001V32.0002H32.3V16.9502Z"/><path fill="#fff" d="M16.15 24.6C16.15 20.25 19.4 16.75 24.05 16.75C26.9 16.75 28.6 17.7 30 19.1L27.9 21.5C26.75 20.45 25.55 19.8 24.05 19.8C21.5 19.8 19.65 21.9 19.65 24.5V24.55C19.65 27.15 21.45 29.3 24.05 29.3C25.8 29.3 26.85 28.6 28.05 27.55L30.15 29.7C28.6 31.35 26.85 32.4 23.95 32.4C19.45 32.35 16.15 28.9 16.15 24.6Z"/><defs><linearGradient id="paint0_linear" x1="23.005" x2="41.341" y1="12.513" y2="12.513" gradientUnits="userSpaceOnUse"><stop offset="0" stop-color="#FF318C"/><stop offset=".149" stop-color="#FB348C"/><stop offset=".285" stop-color="#F03C8C"/><stop offset=".416" stop-color="#DE4A8C"/><stop offset=".543" stop-color="#C45D8B"/><stop offset=".669" stop-color="#A2778B"/><stop offset=".793" stop-color="#79958A"/><stop offset=".913" stop-color="#49B98A"/><stop offset="1" stop-color="#21D789"/></linearGradient><linearGradient id="paint1_linear" x1="20.82" x2="46.293" y1="18.293" y2="8.349" gradientUnits="userSpaceOnUse"><stop offset=".107" stop-color="#FF318C"/><stop offset=".218" stop-color="#FB338C"/><stop offset=".319" stop-color="#F0388E"/><stop offset=".417" stop-color="#DE4190"/><stop offset=".511" stop-color="#C44E93"/><stop offset=".601" stop-color="#A45E97"/><stop offset=".637" stop-color="#976A96"/><stop offset=".705" stop-color="#758992"/><stop offset=".796" stop-color="#3FBC8C"/><stop offset=".84" stop-color="#21D789"/></linearGradient><linearGradient id="paint2_linear" x1="20.741" x2="6.813" y1="7.049" y2="32.071" gradientUnits="userSpaceOnUse"><stop offset=".029" stop-color="#00FF6A"/><stop offset=".375" stop-color="#21D789"/><stop offset=".903" stop-color="#009AE5"/></linearGradient><linearGradient id="paint3_linear" x1="24.143" x2="14.88" y1="17.137" y2="17.954" gradientUnits="userSpaceOnUse"><stop offset=".029" stop-color="#A6FF9E"/><stop offset=".602" stop-color="#21D789" stop-opacity="0"/></linearGradient><linearGradient id="paint4_linear" x1="34.296" x2="64.013" y1="43.637" y2="47.862" gradientUnits="userSpaceOnUse"><stop offset=".344" stop-color="#21D789"/><stop offset=".803" stop-color="#009AE5"/><stop offset=".993" stop-color="#0855FA"/></linearGradient><linearGradient id="paint5_linear" x1="35.895" x2="58.818" y1="43.437" y2="30.771" gradientUnits="userSpaceOnUse"><stop offset=".096" stop-color="#00FF6A"/><stop offset=".965" stop-color="#00FF6A" stop-opacity="0"/></linearGradient><linearGradient id="paint6_linear" x1="31.356" x2="66.402" y1="63.323" y2="43.959" gradientUnits="userSpaceOnUse"><stop offset="0" stop-color="#42FFFA" stop-opacity=".5"/><stop offset=".999" stop-color="#00FF6A" stop-opacity="0"/></linearGradient><linearGradient id="paint7_linear" x1="40.923" x2="28.573" y1="48.446" y2="46.266" gradientUnits="userSpaceOnUse"><stop offset=".052" stop-color="#00FF6A"/><stop offset="1" stop-color="#009AE5"/></linearGradient><linearGradient id="paint8_linear" x1="64.336" x2="24.534" y1="51.332" y2="47.606" gradientUnits="userSpaceOnUse"><stop offset=".121" stop-color="#21D789" stop-opacity="0"/><stop offset=".787" stop-color="#00FF6A"/></linearGradient><linearGradient id="paint9_linear" x1="42.249" x2="33.959" y1="45.795" y2="52.511" gradientUnits="userSpaceOnUse"><stop offset=".096" stop-color="#42FFFA"/><stop offset=".965" stop-color="#42FFFA" stop-opacity="0"/></linearGradient><linearGradient id="paint10_linear" x1="17.979" x2="-1.115" y1="10.655" y2="52.315" gradientUnits="userSpaceOnUse"><stop offset=".091" stop-color="#00FF6A"/><stop offset=".759" stop-color="#009AE5"/></linearGradient><linearGradient id="paint11_linear" x1="3.364" x2="10.266" y1="20.209" y2="45.091" gradientUnits="userSpaceOnUse"><stop offset=".116" stop-color="#21D789" stop-opacity=".6"/><stop offset="1" stop-color="#009AE5"/></linearGradient><linearGradient id="paint12_linear" x1="58.773" x2="-5.61" y1="6.322" y2="74.32" gradientUnits="userSpaceOnUse"><stop offset=".091" stop-color="#21D789"/><stop offset=".903" stop-color="#009AE5"/></linearGradient><linearGradient id="paint13_linear" x1="32.678" x2="20.52" y1="61.116" y2="34.776" gradientUnits="userSpaceOnUse"><stop offset=".01" stop-color="#009AE5"/><stop offset=".965" stop-color="#009AE5" stop-opacity="0"/></linearGradient><linearGradient id="paint14_linear" x1="0" x2="22.526" y1="47.897" y2="47.897" gradientUnits="userSpaceOnUse"><stop offset=".056" stop-color="#009AE5" stop-opacity=".4"/><stop offset=".79" stop-color="#009AE5"/></linearGradient><linearGradient id="paint15_linear" x1="3.86" x2="19.662" y1="34.131" y2="47.39" gradientUnits="userSpaceOnUse"><stop offset=".12" stop-color="#42FFFA"/><stop offset=".674" stop-color="#42FFFA" stop-opacity="0"/></linearGradient><linearGradient id="paint16_linear" x1="11.938" x2="22.526" y1="40.399" y2="40.399" gradientUnits="userSpaceOnUse"><stop offset=".056" stop-color="#009AE5" stop-opacity=".4"/><stop offset="1" stop-color="#087CFA"/></linearGradient><linearGradient id="paint17_linear" x1="10.852" x2="51.159" y1="44.856" y2="-4.582" gradientUnits="userSpaceOnUse"><stop offset="0" stop-color="#0697DC"/><stop offset=".903" stop-color="#00FF6A"/></linearGradient><linearGradient id="paint18_linear" x1="35.328" x2="27.881" y1="30.956" y2="25.235" gradientUnits="userSpaceOnUse"><stop offset=".096" stop-color="#6EFFA3"/><stop offset=".602" stop-color="#21D789" stop-opacity="0"/></linearGradient><linearGradient id="paint19_linear" x1="52.518" x2="42.166" y1="8.312" y2="3.227" gradientUnits="userSpaceOnUse"><stop offset=".096" stop-color="#6EFFA3"/><stop offset=".965" stop-color="#FCF84A" stop-opacity="0"/></linearGradient><linearGradient id="paint20_linear" x1="59.776" x2="17.276" y1="50.035" y2="9.714" gradientUnits="userSpaceOnUse"><stop offset=".575" stop-color="#0CAFA3" stop-opacity=".137"/><stop offset="1" stop-color="#07C3F2" stop-opacity=".88"/></linearGradient><linearGradient id="paint21_linear" x1="16.903" x2="51.4" y1="22.484" y2="38.627" gradientUnits="userSpaceOnUse"><stop offset=".486" stop-color="#087CFA" stop-opacity="0"/><stop offset="1" stop-color="#21D789"/></linearGradient><linearGradient id="paint22_linear" x1="29.725" x2="23.564" y1="35.036" y2="30.07" gradientUnits="userSpaceOnUse"><stop offset=".311" stop-color="#65FFC5" stop-opacity=".88"/><stop offset=".444" stop-color="#56F2BE" stop-opacity=".68"/><stop offset=".698" stop-color="#2FD0AD" stop-opacity=".297"/><stop offset=".895" stop-color="#0CB29E" stop-opacity="0"/></linearGradient><linearGradient id="paint23_linear" x1="26.97" x2="17.889" y1="37.194" y2="20.303" gradientUnits="userSpaceOnUse"><stop offset=".096" stop-color="#42FFFA"/><stop offset=".634" stop-color="#42FFFA" stop-opacity="0"/></linearGradient><linearGradient id="paint24_linear" x1="68.353" x2="48.858" y1="16.767" y2="7.191" gradientUnits="userSpaceOnUse"><stop offset=".151" stop-color="#00865B"/><stop offset=".25" stop-color="#048D64" stop-opacity=".879"/><stop offset=".412" stop-color="#0EA07D" stop-opacity=".68"/><stop offset=".619" stop-color="#1FBFA6" stop-opacity=".426"/><stop offset=".859" stop-color="#37EADF" stop-opacity=".131"/><stop offset=".965" stop-color="#42FFFA" stop-opacity="0"/></linearGradient><linearGradient id="paint25_linear" x1="58.524" x2="20.11" y1="3.436" y2="29.59" gradientUnits="userSpaceOnUse"><stop offset=".145" stop-color="#FF67AA"/><stop offset=".233" stop-color="#FB69A9" stop-opacity=".86"/><stop offset=".313" stop-color="#F06FA6" stop-opacity=".733"/><stop offset=".391" stop-color="#DE7AA2" stop-opacity=".61"/><stop offset=".466" stop-color="#C48A9B" stop-opacity=".49"/><stop offset=".541" stop-color="#A29E93" stop-opacity=".372"/><stop offset=".614" stop-color="#79B788" stop-opacity=".256"/><stop offset=".686" stop-color="#48D47C" stop-opacity=".141"/><stop offset=".756" stop-color="#10F56E" stop-opacity=".03"/><stop offset=".776" stop-color="#00FF6A" stop-opacity="0"/></linearGradient><linearGradient id="paint26_linear" x1="18.741" x2="33.044" y1="11.387" y2="13.158" gradientUnits="userSpaceOnUse"><stop offset=".226" stop-color="#FF52A0"/><stop offset=".403" stop-color="#FF4E9E" stop-opacity=".64"/><stop offset=".564" stop-color="#FF4397" stop-opacity=".313"/><stop offset=".718" stop-color="#FF318C" stop-opacity="0"/></linearGradient><linearGradient id="paint27_linear" x1="11.497" x2="51.27" y1="12.097" y2="50.707" gradientUnits="userSpaceOnUse"><stop offset="0" stop-color="#007859"/><stop offset=".088" stop-color="#00533E"/><stop offset=".192" stop-color="#002F23"/><stop offset=".289" stop-color="#001510"/><stop offset=".377" stop-color="#000604"/><stop offset=".445"/><stop offset=".914"/></linearGradient><linearGradient id="paint28_linear" x1="31.555" x2="54.106" y1="39.133" y2="42.339" gradientUnits="userSpaceOnUse"><stop offset=".021" stop-color="#00A466"/><stop offset=".993" stop-color="#083737"/></linearGradient><linearGradient id="paint29_linear" x1="42.605" x2="52" y1="46.235" y2="46.235" gradientUnits="userSpaceOnUse"><stop offset=".154" stop-color="#003127"/><stop offset=".993" stop-color="#0855FA"/></linearGradient><linearGradient id="paint30_linear" x1="23.449" x2="16.895" y1="22.978" y2="23.556" gradientUnits="userSpaceOnUse"><stop offset=".096" stop-color="#6EFFA3"/><stop offset=".965" stop-color="#FCF84A"/></linearGradient><linearGradient id="paint31_linear" x1="19.417" x2="9.845" y1="16.541" y2="37.424" gradientUnits="userSpaceOnUse"><stop offset=".091" stop-color="#00FF6A"/><stop offset=".759" stop-color="#009AE5"/></linearGradient><linearGradient id="paint32_linear" x1="25.622" x2="32.565" y1="10.937" y2="25.273" gradientUnits="userSpaceOnUse"><stop offset=".337" stop-color="#FF52A0"/><stop offset=".493" stop-color="#FF489A"/><stop offset=".718" stop-color="#FF318C"/></linearGradient><linearGradient id="paint33_linear" x1="36.161" x2="28.704" y1="9.75" y2="53.465" gradientUnits="userSpaceOnUse"><stop offset="0" stop-color="#21D789"/><stop offset="1" stop-color="#090C1B"/></linearGradient><linearGradient id="paint34_linear" x1="32.989" x2="21.386" y1="13.34" y2="38.862" gradientUnits="userSpaceOnUse"><stop offset=".096" stop-color="#6EFFA3"/><stop offset=".965" stop-color="#218F59"/></linearGradient><linearGradient id="paint35_linear" x1="10.346" x2="19.579" y1="37.014" y2="44.761" gradientUnits="userSpaceOnUse"><stop offset=".154" stop-color="#001A18"/><stop offset=".993" stop-color="#0855FA"/></linearGradient></defs></svg>