<svg xmlns="http://www.w3.org/2000/svg" xmlns:xlink="http://www.w3.org/1999/xlink" width="32" height="32" fill-rule="nonzero" viewBox="0 0 256 256"><g><g fill="#000" fill-rule="nonzero" stroke="none" stroke-dashoffset="0" stroke-linecap="butt" stroke-linejoin="miter" stroke-miterlimit="10" stroke-width="1" font-family="none" font-size="none" font-weight="none" text-anchor="none" style="mix-blend-mode:normal"><g><path d="M16,5c-3.252,0 -7.68789,0.05086 -8.58789,0.13086c-1.01,0.606 -3.0093,2.90009 -3.0293,3.49609v1c0,1.263 1.18291,2.37305 2.25391,2.37305c1.283,0 2.35352,-1.07003 2.35352,-2.33203c0,1.262 1.04027,2.33203 2.32227,2.33203c1.293,0 2.29297,-1.06903 2.29297,-2.33203c0,1.262 1.08981,2.33203 2.38281,2.33203h0.02148c1.293,0 2.38281,-1.06903 2.38281,-2.33203c0,1.262 1.00997,2.33203 2.29297,2.33203c1.283,0 2.32422,-1.06903 2.32422,-2.33203c0,1.262 1.07052,2.33203 2.35352,2.33203c1.071,0 2.25195,-1.11005 2.25195,-2.37305v-1c-0.02,-0.596 -2.0193,-2.89009 -3.0293,-3.49609c-3.142,-0.111 -5.33394,-0.13086 -8.58594,-0.13086zM13.55078,11.74219c-1.053,1.81 -3.69847,1.83172 -4.73047,0.01172c-0.63,1.092 -2.05602,1.51364 -2.66602,1.30664c-0.178,1.899 -0.30081,11.6482 0.99219,13.2832c3.797,0.885 14.01803,0.866 17.70703,0c1.495,-1.524 1.16019,-11.5222 0.99219,-13.2832c-0.61,0.207 -2.03625,-0.21464 -2.65625,-1.30664c-1.043,1.82 -3.68823,1.79828 -4.74023,-0.01172c-0.325,0.59 -1.08222,1.36719 -2.44922,1.36719c-1.003,0.039 -1.94822,-0.50219 -2.44922,-1.36719zM11.41992,14c0.8,0 1.53016,0.00047 2.41016,0.98047c1.45,-0.15 2.88984,-0.15 4.33984,0c0.89,-0.97 1.61016,-0.9707 2.41016,-0.9707c2.58,0 3.20086,3.80984 4.13086,7.08984c0.84,3.05 -0.28188,3.13086 -1.67188,3.13086c-2.07,-0.08 -3.21875,-1.57984 -3.21875,-3.08984c-1.93,0.32 -5.01062,0.44 -7.64062,0c0,1.51 -1.14875,3.00984 -3.21875,3.08984c-1.39,0 -2.51187,-0.08086 -1.67187,-3.13086c0.93,-3.3 1.55086,-7.08984 4.13086,-7.08984zM16,16.87695c0,0 -1.694,1.56242 -2,2.10742l1.10742,-0.04102v0.9668c0,0.058 0.81858,0.00781 0.89258,0.00781c0.447,0.017 0.89258,0.03319 0.89258,-0.00781v-0.9668l1.10742,0.04102c-0.306,-0.546 -2,-2.10742 -2,-2.10742z" transform="translate(-48,-48) scale(1.375,1.375) translate(0.00781,7.99842) scale(8,8)"/></g></g></g></svg>