<svg xmlns="http://www.w3.org/2000/svg" xmlns:xlink="http://www.w3.org/1999/xlink" viewBox="0,0,256,256" width="32px" height="32px" fill-rule="nonzero"><g transform="translate(4,4) scale(0.96875,0.96875)"><g fill="#242938" fill-rule="nonzero" stroke="none" stroke-width="1" stroke-linecap="butt" stroke-linejoin="miter" stroke-miterlimit="10" stroke-dasharray="" stroke-dashoffset="0" font-family="none" font-weight="none" font-size="none" text-anchor="none" style="mix-blend-mode: normal"><path d="M61.93548,260.12903c-36.48642,0 -66.06452,-29.57809 -66.06452,-66.06452v-132.12903c0,-36.48642 29.57809,-66.06452 66.06452,-66.06452h132.12903c36.48642,0 66.06452,29.57809 66.06452,66.06452v132.12903c0,36.48642 -29.57809,66.06452 -66.06452,66.06452z" id="shape"></path></g><g fill="none" fill-rule="nonzero" stroke="none" stroke-width="1" stroke-linecap="butt" stroke-linejoin="miter" stroke-miterlimit="10" stroke-dasharray="" stroke-dashoffset="0" font-family="none" font-weight="none" font-size="none" text-anchor="none" style="mix-blend-mode: normal"><g transform="scale(4,4)"><path d="M61,19.544c0,3.202 -2.617,6.772 -5.837,6.772c1.342,8.687 0.827,18.758 0.389,24.156c-0.204,2.448 -1.946,4.479 -4.319,5.127c-11.752,3.202 -27.103,3.202 -38.854,-0.01c-2.383,-0.648 -4.105,-2.68 -4.31,-5.137c-0.448,-5.224 -0.924,-14.908 0.399,-24.137c-3.22,0 -5.837,-3.57 -3.68,-6.772l7.677,-11.543h38.702z" fill="#85cbf8"></path><path d="M32.007,59.007c-7.081,0 -14.159,-0.817 -20.333,-2.451c-2.86,-0.754 -4.946,-3.172 -5.19,-6.018c-0.44,-4.972 -0.97,-14.653 0.367,-24.015c-0.029,-0.101 -0.046,-0.204 -0.046,-0.298c0,-1.919 7.535,-9.226 13.177,-9.226h31.828c4.053,0 5.866,3.614 5.865,7.195c0,1.119 -0.172,1.958 -0.498,2.484c1.299,8.659 0.77,18.639 0.33,23.877c-0.244,2.839 -2.334,5.254 -5.2,6.011c-6.168,1.627 -13.235,2.441 -20.3,2.441zM8.888,26.22c0.007,0.08 0.005,0.161 -0.006,0.242c-1.373,9.268 -0.843,18.953 -0.406,23.902c0.175,2.04 1.631,3.71 3.709,4.258c12.024,3.183 27.572,3.187 39.611,0.01c2.052,-0.542 3.547,-2.248 3.719,-4.246c0.439,-5.251 0.974,-15.345 -0.393,-23.912c-0.046,-0.289 0.036,-0.584 0.227,-0.807c0.055,-0.063 0.115,-0.12 0.183,-0.167c0.207,-0.669 0.319,-3.07 -0.716,-4.81c-0.677,-1.138 -1.66,-1.691 -3.006,-1.691h-31.828c-4.473,0 -10.123,5.628 -11.094,7.221z" fill="#8d6c9f"></path><path d="M3,20c0,3.862 2.6,7 5.8,7c3.2,0 5.8,-3.138 5.8,-7" fill="#ed7899"></path><path d="M14.6,20c0,3.866 2.597,7 5.8,7c3.203,0 5.8,-3.134 5.8,-7" fill="#f7a1c8"></path><path d="M26.2,20c0,3.866 2.597,7 5.8,7c3.203,0 5.8,-3.134 5.8,-7" fill="#ed7899"></path><path d="M37.8,20c0,3.866 2.597,7 5.8,7c3.203,0 5.8,-3.134 5.8,-7" fill="#f7a1c8"></path><path d="M49.4,20c0,3.862 2.6,7 5.8,7c3.2,0 5.8,-3.138 5.8,-7" fill="#ed7899"></path><path d="M26.2,20l1.933,-12h7.734l1.933,12" fill="#f283a5"></path><path d="M3,20l7.8,-12h8.2l-4.4,12" fill="#f283a5"></path><path d="M49.4,20l-4.867,-12h8.667l7.8,12" fill="#f283a5"></path><path d="M14.6,20l4.4,-12h9.133l-1.933,12" fill="#ffbbdd"></path><path d="M49.4,20l-4.867,-12h-8.666l1.933,12" fill="#ffbbdd"></path><path d="M43.688,35.191c-0.658,-2.76 -3.234,-4.546 -5.943,-4.121c-0.926,0.166 -1.792,0.59 -2.503,1.227c-0.317,0.287 -0.723,0.446 -1.144,0.448h-4.748c-0.426,0 -0.838,-0.159 -1.161,-0.448c-0.475,-0.429 -1.024,-0.76 -1.619,-0.976c-2.69,-1.009 -5.659,0.436 -6.632,3.228c-0.05,0.143 -0.094,0.289 -0.132,0.436c-1.468,5.688 -0.863,11.816 -0.259,15.529c0.166,0.974 1.061,1.625 2,1.453c0.399,-0.073 0.76,-0.289 1.021,-0.611c1.334,-1.653 2.554,-3.401 3.652,-5.232c0.317,-0.523 0.872,-0.84 1.468,-0.838h8.067c0.593,0.001 1.143,0.317 1.459,0.838c1.098,1.832 2.318,3.582 3.652,5.236c0.613,0.758 1.702,0.856 2.432,0.219c0.309,-0.27 0.518,-0.644 0.589,-1.057c0.621,-3.671 1.195,-9.714 -0.199,-15.331z" fill="#faefde"></path><path d="M42.612,52.863c-0.08,0 -0.16,-0.004 -0.241,-0.011c-0.735,-0.063 -1.402,-0.415 -1.875,-0.988c-1.382,-1.681 -2.653,-3.469 -3.782,-5.316c-0.195,-0.315 -0.564,-0.548 -0.716,-0.548h-7.998v0c-0.155,0 -0.524,0.231 -0.724,0.553c-1.128,1.845 -2.4,3.632 -3.777,5.305c-0.416,0.502 -0.993,0.841 -1.629,0.956c-0.719,0.129 -1.446,-0.03 -2.047,-0.451c-0.609,-0.427 -1.016,-1.067 -1.144,-1.806c-0.688,-4.138 -1.197,-10.239 0.28,-15.853c0.047,-0.178 0.1,-0.35 0.161,-0.519c0.569,-1.602 1.725,-2.882 3.253,-3.599c1.505,-0.707 3.192,-0.779 4.752,-0.206c0.718,0.256 1.379,0.647 1.958,1.16c0.171,0.15 0.284,0.312 0.363,0.459h5.099c0.08,-0.152 0.191,-0.311 0.359,-0.459c0.86,-0.756 1.906,-1.259 3.027,-1.456c3.29,-0.51 6.367,1.573 7.165,4.838c1.508,5.958 0.783,12.357 0.217,15.643c-0.113,0.641 -0.443,1.223 -0.932,1.641c-0.5,0.429 -1.121,0.657 -1.769,0.657zM36,44c1.03,0.002 1.956,0.755 2.418,1.5c1.083,1.774 2.301,3.485 3.621,5.093c0.128,0.154 0.308,0.25 0.506,0.268c0.187,0.021 0.387,-0.045 0.538,-0.175c0.136,-0.116 0.229,-0.281 0.262,-0.464c0.538,-3.125 1.231,-9.212 -0.188,-14.812c0,-0.003 -0.001,-0.006 -0.002,-0.009c-0.548,-2.251 -2.66,-3.692 -4.897,-3.342c-0.708,0.125 -1.389,0.443 -1.957,0.919c-0.292,0.851 -0.861,1.021 -1.296,1.022h-6.005c-0.445,0 -1.032,-0.175 -1.302,-1.006c-0.001,-0.005 -0.002,-0.009 -0.003,-0.012c-0.373,-0.316 -0.792,-0.559 -1.25,-0.722c-1.062,-0.39 -2.204,-0.341 -3.221,0.136c-1.041,0.489 -1.83,1.364 -2.22,2.464c-0.043,0.12 -0.079,0.237 -0.11,0.355c-1.386,5.267 -0.896,11.067 -0.242,15.005c0.035,0.202 0.149,0.383 0.318,0.502c0.161,0.112 0.355,0.155 0.545,0.121c0.171,-0.031 0.328,-0.123 0.441,-0.261c1.316,-1.599 2.533,-3.309 3.617,-5.081c0.468,-0.75 1.395,-1.501 2.424,-1.501c0.002,0 0.004,0 0.007,0zM27.759,33.038c0,0.001 0.001,0.002 0.002,0.002c-0.001,0 -0.002,-0.001 -0.002,-0.002z" fill="#8d6c9f"></path><path d="M32,43c-0.552,0 -1,-0.447 -1,-1v-3.586l-0.293,0.293c-0.391,0.391 -1.023,0.391 -1.414,0c-0.391,-0.391 -0.391,-1.023 0,-1.414l2,-2c0.286,-0.287 0.714,-0.374 1.09,-0.217c0.373,0.155 0.617,0.52 0.617,0.924v6c0,0.553 -0.448,1 -1,1z" fill="#8d6c9f"></path><path d="M34,39c-0.256,0 -0.512,-0.098 -0.707,-0.293l-2,-2c-0.391,-0.391 -0.391,-1.023 0,-1.414c0.391,-0.391 1.023,-0.391 1.414,0l2,2c0.391,0.391 0.391,1.023 0,1.414c-0.195,0.195 -0.451,0.293 -0.707,0.293z" fill="#8d6c9f"></path><path d="M38.554,11.168c-0.046,-0.597 -0.475,-0.965 -1.073,-0.92l-1.994,0.152c-0.598,0.046 -0.967,0.475 -0.921,1.072c0.046,0.597 0.475,0.965 1.073,0.92l1.994,-0.152c0.598,-0.046 0.966,-0.475 0.921,-1.072zM38.934,16.147c-0.046,-0.597 -0.475,-0.965 -1.073,-0.92l-1.994,0.152c-0.598,0.046 -0.967,0.475 -0.921,1.072c0.046,0.597 0.475,0.965 1.073,0.92l1.994,-0.152c0.599,-0.046 0.967,-0.475 0.921,-1.072z" fill="#8d6c9f"></path><path d="M16.288,15.913c-0.104,0 -0.211,-0.017 -0.316,-0.052c-0.524,-0.175 -0.807,-0.741 -0.632,-1.265l1,-3c0.175,-0.523 0.74,-0.808 1.265,-0.632c0.524,0.175 0.807,0.741 0.632,1.265l-1,3c-0.14,0.419 -0.53,0.684 -0.949,0.684z" fill="#8d6c9f"></path><path d="M55.351,28c-2.533,0 -4.864,-1.564 -6.195,-3.822c-1.065,2.345 -3.052,3.822 -5.481,3.822c-2.463,0 -4.574,-1.521 -5.73,-3.84c-1.25,2.284 -3.472,3.84 -5.945,3.84c-2.473,0 -4.696,-1.556 -5.944,-3.84c-1.156,2.319 -3.268,3.84 -5.731,3.84c-2.428,0 -4.416,-1.477 -5.48,-3.822c-1.331,2.258 -3.663,3.822 -6.196,3.822c-2.828,0 -5.325,-1.988 -6.362,-5.064c-0.552,-1.637 -0.286,-3.523 0.71,-5.046l6.828,-10.437c0.185,-0.283 0.5,-0.453 0.837,-0.453h42.676c0.338,0 0.652,0.17 0.837,0.453l6.828,10.437v0c0.997,1.524 1.263,3.411 0.71,5.048c-1.036,3.074 -3.533,5.062 -6.362,5.062zM49,19c0.553,0 1,0.448 1,1c0,3.434 2.825,6 5.351,6c1.956,0 3.71,-1.453 4.468,-3.703c0.357,-1.06 0.175,-2.298 -0.489,-3.312v0l-6.533,-9.985h-41.594l-6.532,9.984c-0.664,1.014 -0.846,2.252 -0.488,3.313c0.757,2.25 2.51,3.703 4.466,3.703c2.526,0 5.351,-2.566 5.351,-6c0,-0.552 0.448,-1 1,-1c0.552,0 1,0.448 1,1c0,2.981 1.486,6 4.325,6c2.622,0 4.675,-2.636 4.675,-6c0,-0.552 0.448,-1 1,-1c0.552,0 1,0.448 1,1c0,3.252 2.29,6 5,6c2.71,0 5,-2.748 5,-6c0,-0.552 0.447,-1 1,-1c0.553,0 1,0.448 1,1c0,3.364 2.054,6 4.675,6c2.84,0 4.325,-3.018 4.325,-6c0,-0.552 0.447,-1 1,-1z" fill="#8d6c9f"></path><path d="M26.001,21c-0.054,0 -0.11,-0.004 -0.166,-0.014c-0.544,-0.091 -0.913,-0.606 -0.822,-1.151l2,-12c0.091,-0.544 0.603,-0.913 1.151,-0.822c0.544,0.091 0.913,0.606 0.822,1.151l-2,12c-0.081,0.489 -0.505,0.836 -0.985,0.836z" fill="#8d6c9f"></path><g fill="#8d6c9f"><path d="M49,21.001c-0.419,0 -0.809,-0.265 -0.948,-0.684l-4,-12c-0.175,-0.524 0.108,-1.09 0.632,-1.265c0.529,-0.177 1.09,0.109 1.265,0.632l4,12c0.175,0.524 -0.108,1.09 -0.632,1.265c-0.106,0.035 -0.213,0.052 -0.317,0.052z"></path></g></g></g></g></svg>