<svg xmlns="http://www.w3.org/2000/svg" width="32" height="32" viewBox="0 0 64 64"><path fill="#85cbf8" d="M61,19.544c0,3.202-2.617,6.772-5.837,6.772c1.342,8.687,0.827,18.758,0.389,24.156 c-0.204,2.448-1.946,4.479-4.319,5.127c-11.752,3.202-27.103,3.202-38.854-0.01c-2.383-0.648-4.105-2.68-4.31-5.137 c-0.448-5.224-0.924-14.908,0.399-24.137c-3.22,0-5.837-3.57-3.68-6.772L12.465,8h38.702L61,19.544z"/><path fill="#8d6c9f" d="M32.007,59.007c-7.081,0-14.159-0.817-20.333-2.451c-2.86-0.754-4.946-3.172-5.19-6.018 c-0.44-4.972-0.97-14.653,0.367-24.015c-0.029-0.101-0.046-0.204-0.046-0.298c0-1.919,7.535-9.226,13.177-9.226H51.81 c4.053,0,5.866,3.614,5.865,7.195c0,1.119-0.172,1.958-0.498,2.484c1.299,8.659,0.77,18.639,0.33,23.877 c-0.244,2.839-2.334,5.254-5.2,6.011C46.139,58.193,39.072,59.007,32.007,59.007z M8.888,26.22c0.007,0.08,0.005,0.161-0.006,0.242 C7.509,35.73,8.039,45.415,8.476,50.364c0.175,2.04,1.631,3.71,3.709,4.258c12.024,3.183,27.572,3.187,39.611,0.01 c2.052-0.542,3.547-2.248,3.719-4.246c0.439-5.251,0.974-15.345-0.393-23.912c-0.046-0.289,0.036-0.584,0.227-0.807 c0.055-0.063,0.115-0.12,0.183-0.167c0.207-0.669,0.319-3.07-0.716-4.81c-0.677-1.138-1.66-1.691-3.006-1.691H19.982 C15.509,18.999,9.859,24.627,8.888,26.22z"/><path fill="#ed7899" d="M3,20c0,3.862,2.6,7,5.8,7s5.8-3.138,5.8-7"/><path fill="#f7a1c8" d="M14.6,20c0,3.866,2.597,7,5.8,7s5.8-3.134,5.8-7"/><path fill="#ed7899" d="M26.2,20c0,3.866,2.597,7,5.8,7s5.8-3.134,5.8-7"/><path fill="#f7a1c8" d="M37.8,20c0,3.866,2.597,7,5.8,7s5.8-3.134,5.8-7"/><path fill="#ed7899" d="M49.4,20c0,3.862,2.6,7,5.8,7s5.8-3.138,5.8-7"/><polyline fill="#f283a5" points="26.2 20 28.133 8 35.867 8 37.8 20"/><polyline fill="#f283a5" points="3 20 10.8 8 19 8 14.6 20"/><polyline fill="#f283a5" points="49.4 20 44.533 8 53.2 8 61 20"/><polyline fill="#fbd" points="14.6 20 19 8 28.133 8 26.2 20"/><polyline fill="#fbd" points="49.4 20 44.533 8 35.867 8 37.8 20"/><path fill="#faefde" d="M43.688,35.191c-0.658-2.76-3.234-4.546-5.943-4.121c-0.926,0.166-1.792,0.59-2.503,1.227 c-0.317,0.287-0.723,0.446-1.144,0.448H29.35c-0.426,0-0.838-0.159-1.161-0.448c-0.475-0.429-1.024-0.76-1.619-0.976 c-2.69-1.009-5.659,0.436-6.632,3.228c-0.05,0.143-0.094,0.289-0.132,0.436c-1.468,5.688-0.863,11.816-0.259,15.529 c0.166,0.974,1.061,1.625,2,1.453c0.399-0.073,0.76-0.289,1.021-0.611c1.334-1.653,2.554-3.401,3.652-5.232 c0.317-0.523,0.872-0.84,1.468-0.838h8.067c0.593,0.001,1.143,0.317,1.459,0.838c1.098,1.832,2.318,3.582,3.652,5.236 c0.613,0.758,1.702,0.856,2.432,0.219c0.309-0.27,0.518-0.644,0.589-1.057C44.508,46.851,45.082,40.808,43.688,35.191z"/><path fill="#8d6c9f" d="M42.612,52.863c-0.08,0-0.16-0.004-0.241-0.011c-0.735-0.063-1.402-0.415-1.875-0.988 c-1.382-1.681-2.653-3.469-3.782-5.316C36.519,46.233,36.15,46,35.998,46H28h0c-0.155,0-0.524,0.231-0.724,0.553 c-1.128,1.845-2.4,3.632-3.777,5.305c-0.416,0.502-0.993,0.841-1.629,0.956c-0.719,0.129-1.446-0.03-2.047-0.451 c-0.609-0.427-1.016-1.067-1.144-1.806c-0.688-4.138-1.197-10.239,0.28-15.853c0.047-0.178,0.1-0.35,0.161-0.519 c0.569-1.602,1.725-2.882,3.253-3.599c1.505-0.707,3.192-0.779,4.752-0.206c0.718,0.256,1.379,0.647,1.958,1.16 c0.171,0.15,0.284,0.312,0.363,0.459h5.099c0.08-0.152,0.191-0.311,0.359-0.459c0.86-0.756,1.906-1.259,3.027-1.456 c3.29-0.51,6.367,1.573,7.165,4.838c1.508,5.958,0.783,12.357,0.217,15.643c-0.113,0.641-0.443,1.223-0.932,1.641 C43.881,52.635,43.26,52.863,42.612,52.863z M36,44c1.03,0.002,1.956,0.755,2.418,1.5c1.083,1.774,2.301,3.485,3.621,5.093 c0.128,0.154,0.308,0.25,0.506,0.268c0.187,0.021,0.387-0.045,0.538-0.175c0.136-0.116,0.229-0.281,0.262-0.464 c0.538-3.125,1.231-9.212-0.188-14.812c0-0.003-0.001-0.006-0.002-0.009c-0.548-2.251-2.66-3.692-4.897-3.342 c-0.708,0.125-1.389,0.443-1.957,0.919c-0.292,0.851-0.861,1.021-1.296,1.022H29c-0.445,0-1.032-0.175-1.302-1.006 c-0.001-0.005-0.002-0.009-0.003-0.012c-0.373-0.316-0.792-0.559-1.25-0.722c-1.062-0.39-2.204-0.341-3.221,0.136 c-1.041,0.489-1.83,1.364-2.22,2.464c-0.043,0.12-0.079,0.237-0.11,0.355c-1.386,5.267-0.896,11.067-0.242,15.005 c0.035,0.202,0.149,0.383,0.318,0.502c0.161,0.112,0.355,0.155,0.545,0.121c0.171-0.031,0.328-0.123,0.441-0.261 c1.316-1.599,2.533-3.309,3.617-5.081C26.041,44.751,26.968,44,27.997,44c0.002,0,0.004,0,0.007,0H36z M27.759,33.038 c0,0.001,0.001,0.002,0.002,0.002C27.76,33.04,27.759,33.039,27.759,33.038z"/><path fill="#8d6c9f" d="M32,43c-0.552,0-1-0.447-1-1v-3.586l-0.293,0.293c-0.391,0.391-1.023,0.391-1.414,0 s-0.391-1.023,0-1.414l2-2c0.286-0.287,0.714-0.374,1.09-0.217C32.756,35.231,33,35.596,33,36v6C33,42.553,32.552,43,32,43z"/><path fill="#8d6c9f" d="M34,39c-0.256,0-0.512-0.098-0.707-0.293l-2-2c-0.391-0.391-0.391-1.023,0-1.414 s1.023-0.391,1.414,0l2,2c0.391,0.391,0.391,1.023,0,1.414C34.512,38.902,34.256,39,34,39z"/><path fill="#8d6c9f" d="M38.554,11.168c-0.046-0.597-0.475-0.965-1.073-0.92L35.487,10.4 c-0.598,0.046-0.967,0.475-0.921,1.072c0.046,0.597,0.475,0.965,1.073,0.92l1.994-0.152 C38.231,12.194,38.599,11.765,38.554,11.168z M38.934,16.147c-0.046-0.597-0.475-0.965-1.073-0.92l-1.994,0.152 c-0.598,0.046-0.967,0.475-0.921,1.072c0.046,0.597,0.475,0.965,1.073,0.92l1.994-0.152C38.612,17.173,38.98,16.744,38.934,16.147 z"/><path fill="#8d6c9f" d="M16.288,15.913c-0.104,0-0.211-0.017-0.316-0.052c-0.524-0.175-0.807-0.741-0.632-1.265l1-3 c0.175-0.523,0.74-0.808,1.265-0.632c0.524,0.175,0.807,0.741,0.632,1.265l-1,3C17.097,15.648,16.707,15.913,16.288,15.913z"/><path fill="#8d6c9f" d="M55.351,28c-2.533,0-4.864-1.564-6.195-3.822C48.091,26.523,46.104,28,43.675,28 c-2.463,0-4.574-1.521-5.73-3.84C36.695,26.444,34.473,28,32,28c-2.473,0-4.696-1.556-5.944-3.84C24.9,26.479,22.788,28,20.325,28 c-2.428,0-4.416-1.477-5.48-3.822C13.514,26.436,11.182,28,8.649,28c-2.828,0-5.325-1.988-6.362-5.064 c-0.552-1.637-0.286-3.523,0.71-5.046L9.825,7.453C10.01,7.17,10.325,7,10.662,7h42.676c0.338,0,0.652,0.17,0.837,0.453 l6.828,10.437v0c0.997,1.524,1.263,3.411,0.71,5.048C60.677,26.012,58.18,28,55.351,28z M49,19c0.553,0,1,0.448,1,1 c0,3.434,2.825,6,5.351,6c1.956,0,3.71-1.453,4.468-3.703c0.357-1.06,0.175-2.298-0.489-3.312c0,0,0,0,0,0L52.797,9H11.203 l-6.532,9.984c-0.664,1.014-0.846,2.252-0.488,3.313C4.94,24.547,6.693,26,8.649,26C11.175,26,14,23.434,14,20c0-0.552,0.448-1,1-1 s1,0.448,1,1c0,2.981,1.486,6,4.325,6C22.947,26,25,23.364,25,20c0-0.552,0.448-1,1-1s1,0.448,1,1c0,3.252,2.29,6,5,6 c2.71,0,5-2.748,5-6c0-0.552,0.447-1,1-1s1,0.448,1,1c0,3.364,2.054,6,4.675,6C46.515,26,48,22.982,48,20 C48,19.448,48.447,19,49,19z"/><path fill="#8d6c9f" d="M26.001,21c-0.054,0-0.11-0.004-0.166-0.014c-0.544-0.091-0.913-0.606-0.822-1.151l2-12 c0.091-0.544,0.603-0.913,1.151-0.822c0.544,0.091,0.913,0.606,0.822,1.151l-2,12C26.905,20.653,26.481,21,26.001,21z"/><g><path fill="#8d6c9f" d="M49,21.001c-0.419,0-0.809-0.265-0.948-0.684l-4-12c-0.175-0.524,0.108-1.09,0.632-1.265 c0.529-0.177,1.09,0.109,1.265,0.632l4,12c0.175,0.524-0.108,1.09-0.632,1.265C49.211,20.984,49.104,21.001,49,21.001z"/></g></svg>