<svg xmlns="http://www.w3.org/2000/svg"  viewBox="0 0 100 100" width="32px" height="32px" baseProfile="basic"><path fill="#7c8a9e" d="M76.634,18.401C66.867,18.058,60.092,17.999,49.999,18c-10.089,0.001-23.851,0.158-26.631,0.401	h0.001c-3.143,1.866-9.302,9.289-9.362,11.155v3.089c0,3.112,2.313,5.917,4.93,6.94c-0.316,3.388-0.454,6.888-0.501,9.248v0.013	c-0.007,1.223-0.012,2.227-0.018,3.622c0.064,7.247-0.718,23.482,3.194,27.471c6.061,1.415,17.214,2.058,28.404,2.062h0.001	c11.19-0.003,22.343-0.647,28.404-2.058c3.911-3.99,3.13-20.225,3.194-27.469c-0.006-1.395-0.011-2.399-0.018-3.622v-0.013	c-0.049-2.355-0.186-5.852-0.503-9.237c2.632-1.01,4.967-3.829,4.967-6.956v-3.089C86,27.69,79.775,20.267,76.634,18.401z"/><path fill="#1f212b" d="M79.082,41c-3.137,0-5.874-1.666-7.289-4.12C70.42,39.354,67.73,41,64.57,41	c-3.12,0-5.775-1.646-7.13-4.119C56.009,39.334,53.242,41,50.071,41c-3.22,0-6.001-1.667-7.436-4.121	C41.28,39.354,38.624,41,35.502,41c-3.161,0-5.852-1.646-7.224-4.121C26.863,39.333,24.126,41,20.989,41	c-4.103,0-7.982-4.061-7.982-8.356v-3.089c0.076-2.421,6.695-10.14,9.851-12.014c0.129-0.077,0.274-0.123,0.424-0.136	c2.754-0.241,16.59-0.387,27.058-0.405c9.886,0,16.729,0.064,26.329,0.401c0.167,0.006,0.332,0.054,0.476,0.14	c3.175,1.886,9.838,9.606,9.917,11.981l0,3.122C87.062,36.939,83.184,41,79.082,41z M71.769,32.07c0.552,0,1,0.448,1,1	c0,3.325,2.773,5.93,6.313,5.93c2.692,0,5.98-2.933,5.98-6.356v-3.089c-0.1-1.313-5.541-8.115-8.729-10.164	C66.792,19.059,59.928,18.969,49.999,19c-10.136,0-23.166,0.155-26.311,0.379c-3.167,2.025-8.586,8.853-8.681,10.21l0,3.055	c0,3.423,3.289,6.356,5.982,6.356c3.54,0,6.312-2.605,6.313-5.931c0-0.552,0.448-1,1-1l0,0c0.552,0,1,0.448,1,1	c0,3.325,2.723,5.93,6.2,5.93c3.476,0,6.096-2.549,6.096-5.93c0-0.552,0.448-1,1-1s1,0.448,1,1C43.599,36.34,46.47,39,50,39	c3.603,0,6.476-2.66,6.476-5.93c0-0.552,0.448-1,1-1s1,0.448,1,1c0,3.381,2.62,5.93,6.094,5.93c3.476,0,6.199-2.605,6.199-5.93	C70.769,32.518,71.216,32.07,71.769,32.07z"/><path fill="#1f212b" d="M50.018,83c-12.529-0.003-22.965-0.765-28.633-2.088c-0.185-0.043-0.354-0.138-0.486-0.273	c-3.354-3.421-3.564-13.548-3.489-24.514c0.009-1.362,0.018-2.6,0.009-3.648l0.018-3.636c0.043-2.193,0.17-5.553,0.524-9.264	c0.052-0.55,0.538-0.951,1.091-0.9c0.55,0.053,0.953,0.541,0.9,1.091c-0.349,3.648-0.473,6.954-0.516,9.085l-0.018,3.62	c0.009,1.044,0.001,2.293-0.009,3.667c-0.05,7.32-0.134,19.47,2.731,22.895c5.526,1.23,15.898,1.964,27.876,1.967	c11.974-0.003,22.346-0.735,27.876-1.964c2.865-3.425,2.781-15.574,2.731-22.894c-0.01-1.373-0.018-2.622-0.009-3.679l-0.018-3.607	c-0.045-2.158-0.172-5.487-0.518-9.081c-0.053-0.55,0.35-1.038,0.9-1.091c0.556-0.046,1.039,0.351,1.091,0.9	c0.352,3.655,0.48,7.038,0.527,9.232l0.018,3.652c-0.009,1.061,0,2.298,0.009,3.66c0.076,10.966-0.134,21.092-3.489,24.513	c-0.133,0.136-0.302,0.23-0.487,0.273C72.976,82.237,62.541,82.997,50.018,83z"/><path fill="#fff" d="M69.284,74c-5.67-0.209-8.808-4.328-8.808-8.445c-3.138,0.515-6.8,0.772-10.461,0.772h-0.002	c-3.661,0-7.322-0.257-10.459-0.772c0,4.116-3.138,8.233-8.808,8.445c-3.823-0.006-6.888-0.212-4.566-8.569l3.132-11.238	c2.917-8.19,7.099-8.193,8.144-8.193c2.214,0.005,4.186,0,6.621,2.66c1.92-0.201,3.923-0.302,5.931-0.298h0.003	c2.008-0.003,4.01,0.1,5.931,0.3c2.438-2.659,4.404-2.653,6.618-2.659h0.006V46c1.048,0,5.231,0,8.148,8.19l3.134,11.238	C76.172,73.788,73.107,73.994,69.284,74z M50.006,51.559v0.002c-0.005,0.005-6.357,5.839-7.499,7.914l3.993-0.167v4.027	c0,0.17,7,0.17,7,0v-4.027l4.007,0.166c-1.142-2.075-7.499-7.914-7.499-7.914v-0.002l-0.001,0.001L50.006,51.559z"/><path fill="#1f212b" d="M69.286,75c-5.904-0.217-9.216-4.165-9.737-8.292c-2.88,0.406-6.15,0.62-9.534,0.62	c-3.384,0-6.654-0.213-9.533-0.62c-0.521,4.125-3.829,8.072-9.697,8.292c-1.919-0.002-4.259-0.006-5.528-1.679	c-1.167-1.538-1.179-4.054-0.039-8.157l3.132-11.239C29.811,49.817,32.555,45,37.458,45c2.193,0.005,4.433,0.009,7.008,2.617	c1.805-0.172,3.664-0.26,5.545-0.254c1.908,0.006,3.725,0.083,5.545,0.256c2.559-2.587,4.781-2.61,6.932-2.616	C62.514,45.001,62.541,45,62.567,45c4.906,0,7.651,4.815,9.09,8.855l3.156,11.304c0,0,0,0,0,0.001	c1.14,4.105,1.128,6.623-0.04,8.161C73.504,74.994,71.165,74.997,69.286,75z M60.476,64.555c0.235,0,0.465,0.083,0.647,0.238	c0.224,0.19,0.353,0.469,0.353,0.762c0,3.556,2.695,7.256,7.845,7.445c1.791-0.003,3.239-0.07,3.859-0.888	c0.723-0.953,0.624-3.111-0.294-6.416l-3.134-11.237c-1.194-3.345-3.416-7.408-7.114-7.458c-0.023,0.001-0.047,0.002-0.07,0.002	c-2.194,0.006-3.756,0.011-5.887,2.335c-0.213,0.233-0.525,0.348-0.841,0.319c-1.906-0.198-3.814-0.299-5.826-0.294	c-1.993-0.009-3.944,0.096-5.831,0.293c-0.312,0.029-0.628-0.085-0.842-0.319c-2.13-2.328-3.696-2.331-5.863-2.336	c-3.757,0-6,4.094-7.223,7.528L27.145,65.7c-0.918,3.303-1.017,5.46-0.295,6.412c0.621,0.818,2.069,0.885,3.898,0.888	c5.111-0.192,7.806-3.891,7.806-7.445c0-0.293,0.129-0.572,0.353-0.762s0.517-0.272,0.81-0.225	c3.025,0.497,6.585,0.759,10.297,0.759c3.713,0,7.274-0.263,10.3-0.759C60.368,64.56,60.422,64.555,60.476,64.555z"/><path fill="#1f212b" d="M50.004,63.963c-0.882,0-1.764-0.011-2.425-0.032C46.43,63.894,46,63.88,46,63.335V59.83	l-3.472,0.145c-0.187,0.012-0.351-0.083-0.446-0.236s-0.1-0.346-0.013-0.504c1.119-2.033,6.858-7.358,7.577-8.021	c0.016-0.017,0.034-0.032,0.052-0.047c0.122-0.095,0.278-0.132,0.429-0.092l0.002,0c0.086,0.021,0.163,0.064,0.224,0.123	c1.54,1.425,6.542,6.127,7.592,8.036c0.087,0.158,0.082,0.351-0.013,0.504c-0.095,0.153-0.269,0.246-0.446,0.236L54,59.83v3.506	C54,63.892,54,63.963,50.004,63.963z M47,62.908c1.19,0.076,4.81,0.077,6,0v-3.599c0-0.136,0.056-0.267,0.154-0.361	c0.098-0.094,0.232-0.147,0.367-0.139l3.014,0.125c-1.577-2.035-5.375-5.618-6.528-6.692c-2.057,1.912-5.157,4.932-6.525,6.692	l2.997-0.125c0.15-0.007,0.27,0.045,0.367,0.139C46.944,59.042,47,59.172,47,59.309V62.908z"/><path fill="#1f212b" d="M82.562,30.513c-0.187,0-0.365-0.104-0.451-0.284c-0.608-1.267-3.367-4.717-5.72-6.937	c-0.201-0.189-0.21-0.506-0.021-0.707c0.189-0.2,0.506-0.209,0.707-0.021c2.273,2.145,5.213,5.727,5.935,7.231	c0.12,0.249,0.015,0.548-0.234,0.667C82.708,30.497,82.634,30.513,82.562,30.513z"/><path fill="#1f212b" d="M74.489,22.33c-0.006,0-0.011,0-0.017,0C65.899,22.052,59.342,22,50.242,22h-0.243	c-1.108,0-2.251,0.002-3.414,0.006c0,0-0.001,0-0.001,0c-0.275,0-0.499-0.223-0.5-0.499s0.222-0.5,0.499-0.501	C47.746,21.002,48.89,21,49.999,21h0.243c9.11,0,15.675,0.053,24.263,0.33c0.276,0.009,0.493,0.24,0.483,0.516	C74.98,22.116,74.758,22.33,74.489,22.33z"/><path fill="#1f212b" d="M21.716,25.022c-0.121,0-0.243-0.044-0.339-0.132c-0.203-0.187-0.216-0.503-0.029-0.707	c0.769-0.834,1.893-1.987,2.889-2.749c0.081-0.062,0.178-0.098,0.279-0.103c2.86-0.141,10.312-0.264,18.983-0.313	c0.001,0,0.002,0,0.003,0c0.275,0,0.499,0.222,0.5,0.497c0.001,0.276-0.221,0.501-0.497,0.503	c-8.371,0.048-15.86,0.169-18.783,0.304c-0.724,0.572-1.633,1.446-2.639,2.538C21.985,24.968,21.851,25.022,21.716,25.022z"/><path fill="#1f212b" d="M17.506,30.504c-0.071,0-0.144-0.015-0.213-0.048c-0.25-0.118-0.356-0.416-0.239-0.666	c0.352-0.745,1.263-2.037,2.501-3.546c0.175-0.213,0.49-0.245,0.704-0.069c0.213,0.175,0.244,0.49,0.069,0.704	c-1.154,1.405-2.062,2.685-2.371,3.338C17.874,30.398,17.694,30.504,17.506,30.504z"/><path fill="#1f212b" d="M70.478,66.868c-0.219,0-0.419-0.145-0.481-0.366l-3.1-11.115c-0.497-1.366-1.339-3.281-2.468-4.437	c-0.193-0.198-0.189-0.514,0.008-0.707c0.199-0.193,0.515-0.189,0.707,0.008c1.254,1.284,2.163,3.336,2.705,4.831l3.111,11.151	c0.074,0.266-0.081,0.542-0.347,0.616C70.568,66.862,70.522,66.868,70.478,66.868z"/><path fill="#1f212b" d="M59.043,51c-0.134,0-0.269-0.054-0.367-0.16c-0.188-0.203-0.176-0.519,0.027-0.707	c1.214-1.124,2.091-1.126,3.838-1.131c0,0,0.001,0,0.001,0c0.275,0,0.5,0.223,0.5,0.499c0,0.276-0.223,0.501-0.499,0.501	c-1.671,0.004-2.234,0.006-3.162,0.864C59.287,50.957,59.165,51,59.043,51z"/><path fill="#1f212b" d="M30.078,64.989c-0.044,0-0.09-0.006-0.135-0.019c-0.266-0.074-0.421-0.35-0.347-0.616l2.49-8.936	c0.074-0.266,0.35-0.421,0.616-0.347c0.266,0.074,0.421,0.35,0.347,0.616l-2.49,8.936C30.498,64.844,30.297,64.989,30.078,64.989z"/><path fill="#1f212b" d="M28.882,70.922c-0.261,0-0.48-0.202-0.499-0.466c-0.042-0.621,0.035-1.832,0.648-4.078	c0.073-0.267,0.349-0.421,0.614-0.351c0.266,0.073,0.423,0.348,0.351,0.614c-0.607,2.222-0.646,3.301-0.615,3.746	c0.019,0.275-0.189,0.514-0.465,0.533C28.905,70.921,28.894,70.922,28.882,70.922z"/></svg>