<svg xmlns="http://www.w3.org/2000/svg" xmlns:xlink="http://www.w3.org/1999/xlink" viewBox="0,0,256,256" width="48px" height="48px" fill-rule="nonzero"><g fill="#0078d4" fill-rule="nonzero" stroke="none" stroke-width="1" stroke-linecap="butt" stroke-linejoin="miter" stroke-miterlimit="10" stroke-dasharray="" stroke-dashoffset="0" font-family="none" font-weight="none" font-size="none" text-anchor="none" style="mix-blend-mode: normal"><path d="M51.2,256c-28.27698,0 -51.2,-22.92302 -51.2,-51.2v-153.6c0,-28.27698 22.92302,-51.2 51.2,-51.2h153.6c28.27698,0 51.2,22.92302 51.2,51.2v153.6c0,28.27698 -22.92302,51.2 -51.2,51.2z" id="shape"></path></g><g fill="none" fill-rule="nonzero" stroke="none" stroke-width="1" stroke-linecap="butt" stroke-linejoin="miter" stroke-miterlimit="10" stroke-dasharray="" stroke-dashoffset="0" font-family="none" font-weight="none" font-size="none" text-anchor="none" style="mix-blend-mode: normal"><g transform="scale(5.33333,5.33333)"><path d="M42,37c0,2.762 -2.238,5 -5,5h-26c-2.761,0 -5,-2.238 -5,-5v-26c0,-2.762 2.239,-5 5,-5h26c2.762,0 5,2.238 5,5z" fill="#0078d4"></path><path d="M30,37v-10.099c0,-1.689 -0.819,-2.698 -2.192,-2.698c-0.815,0 -1.414,0.459 -1.779,1.364c-0.017,0.064 -0.041,0.325 -0.031,1.114l0.002,10.319h-7v-19h7v1.061c1.022,-0.705 2.275,-1.061 3.738,-1.061c4.547,0 7.261,3.093 7.261,8.274l0.001,10.726zM11,37v-19h3.457c-2.003,0 -3.457,-1.472 -3.457,-3.501c0,-2.027 1.478,-3.499 3.514,-3.499c2.012,0 3.445,1.431 3.486,3.479c0,2.044 -1.479,3.521 -3.515,3.521h3.515v19z" fill="#000000" opacity="0.05"></path><path d="M30.5,36.5v-9.599c0,-1.973 -1.031,-3.198 -2.692,-3.198c-1.295,0 -1.935,0.912 -2.243,1.677c-0.082,0.199 -0.071,0.989 -0.067,1.326l0.002,9.794h-6v-18h6v1.638c0.795,-0.823 2.075,-1.638 4.238,-1.638c4.233,0 6.761,2.906 6.761,7.774l0.001,10.226zM11.5,36.5v-18h6v18zM14.457,17.5c-1.713,0 -2.957,-1.262 -2.957,-3.001c0,-1.738 1.268,-2.999 3.014,-2.999c1.724,0 2.951,1.229 2.986,2.989c0,1.749 -1.268,3.011 -3.015,3.011z" fill="#000000" opacity="0.07"></path><path d="M12,19h5v17h-5zM14.485,17h-0.028c-1.492,0 -2.457,-1.112 -2.457,-2.501c0,-1.419 0.995,-2.499 2.514,-2.499c1.521,0 2.458,1.08 2.486,2.499c0,1.388 -0.965,2.501 -2.515,2.501zM36,36h-5v-9.099c0,-2.198 -1.225,-3.698 -3.192,-3.698c-1.501,0 -2.313,1.012 -2.707,1.99c-0.144,0.35 -0.101,1.318 -0.101,1.807v9h-5v-17h5v2.616c0.721,-1.116 1.85,-2.616 4.738,-2.616c3.578,0 6.261,2.25 6.261,7.274l0.001,9.726z" fill="#ffffff"></path></g></g></svg>