<svg xmlns="http://www.w3.org/2000/svg" xmlns:xlink="http://www.w3.org/1999/xlink" viewBox="0,0,256,256" width="48px" height="48px" fill-rule="nonzero"><g fill="#242938" fill-rule="nonzero" stroke="none" stroke-width="1" stroke-linecap="butt" stroke-linejoin="miter" stroke-miterlimit="10" stroke-dasharray="" stroke-dashoffset="0" font-family="none" font-weight="none" font-size="none" text-anchor="none" style="mix-blend-mode: normal"><path d="M51.2,256c-28.27698,0 -51.2,-22.92302 -51.2,-51.2v-153.6c0,-28.27698 22.92302,-51.2 51.2,-51.2h153.6c28.27698,0 51.2,22.92302 51.2,51.2v153.6c0,28.27698 -22.92302,51.2 -51.2,51.2z" id="shape"></path></g><g fill="none" fill-rule="nonzero" stroke="none" stroke-width="1" stroke-linecap="butt" stroke-linejoin="miter" stroke-miterlimit="10" stroke-dasharray="" stroke-dashoffset="0" font-family="none" font-weight="none" font-size="none" text-anchor="none" style="mix-blend-mode: normal"><g transform="scale(5.33333,5.33333)"><path d="M34,42h-20c-4.411,0 -8,-3.589 -8,-8v-20c0,-4.411 3.589,-8 8,-8h20c4.411,0 8,3.589 8,8v20c0,4.411 -3.589,8 -8,8z" fill="#1e88e5"></path><path d="M35.926,17.488l-6.512,6.512l6.511,6.511c0.044,-0.164 0.075,-0.333 0.075,-0.511v-12c0,-0.178 -0.031,-0.347 -0.074,-0.512zM26.688,23.899l7.824,-7.825c-0.165,-0.043 -0.334,-0.074 -0.512,-0.074h-20c-0.178,0 -0.347,0.031 -0.512,0.074l7.824,7.825c1.483,1.481 3.893,1.481 5.376,0zM24,27.009c-1.44,0 -2.873,-0.542 -3.99,-1.605l-6.522,6.522c0.165,0.043 0.334,0.074 0.512,0.074h20c0.178,0 0.347,-0.031 0.512,-0.074l-6.522,-6.522c-1.117,1.063 -2.55,1.605 -3.99,1.605zM12.074,17.488c-0.043,0.165 -0.074,0.334 -0.074,0.512v12c0,0.178 0.031,0.347 0.074,0.512l6.512,-6.512z" fill="#ffffff"></path></g></g></svg>